<svg id="Layer1" xmlns="http://www.w3.org/2000/svg" viewBox="0 0 198.25 213.32"><defs><style>.cls-1{fill:#945b42;}.cls-2{fill:#fcc197;}</style></defs><path class="cls-1" d="M12,117.2a128.59,128.59,0,0,0,17.6-27.8c7.1-14.9,11.7-30.7,20.4-44.7,6.7-10.9,14.6-20.1,25.4-26.5,7.7-4.6,15.8-6.7,26.3-7.6,33.5-3.1,46.5,11.2,46.5,11.2a58.05,58.05,0,0,1,9.7,15.3c3.6,8.7,8.6,49,10.9,58.5s15.3,50,15.3,50,1.5,6.6-7.3,9.7c-7.9,2.8-11-3.9-11-3.9l-15-35.9s-.9-4.1-4.1-3.2-2.3,4.6-2.3,4.6l11.7,60.8s1.3,7.1-8.1,8.8-10.3-4.2-10.3-4.2l-16.6-61.1s-1.4-3.6-3.7-3.2-2,3.7-2,3.7l7.4,72.6s.9,8.1-9.4,8.9-10.6-6.5-10.6-6.5l-11.7-72.2s-.3-3.1-2.5-3.1c-3.7,0-3,4.1-3,4.1l.6,61s1.8,8.3-10.9,8.6c-10.4.2-10.3-7.5-10.3-7.5l-5.7-84s0-4-2.5-4.2a4.3,4.3,0,0,0-5,4.2s-9.6,21.8-23.3,25.3C9.05,133.9,12,117.2,12,117.2Z"/><path class="cls-2" d="M14.15,117.6s-1,1.5,2.9,5.1,6.6,2.8,6.6,2.8,11.9-10.1,4.9-15.3C20.75,104.3,14.15,117.6,14.15,117.6Z"/><path class="cls-2" d="M68,190.1s2.7,1.7,7.8,1.4c6.6-.4,7.1-2.3,7.1-2.3s1.4-11.9-8-11.5C65,178.1,68,190.1,68,190.1Z"/><path class="cls-2" d="M106.45,197.8s1.8,2.5,6.7,1.9c6.3-.7,6.9-3.6,6.9-3.6s.1-11.8-8.1-11.3C102.45,185.5,106.45,197.8,106.45,197.8Z"/><path class="cls-2" d="M140.05,181.7a10.05,10.05,0,0,0,7.2.9c5.8-1.2,6-3.5,6-3.5s.2-10.5-8.5-9.9C135.85,169.8,140.05,181.7,140.05,181.7Z"/><path class="cls-2" d="M170.85,150.9a11.93,11.93,0,0,0,6.7-.6c4.7-1.9,3.9-3.6,3.9-3.6s-1.4-8.5-8.5-6.6C165.65,142,170.85,150.9,170.85,150.9Z"/></svg>