<svg id="Layer1" xmlns="http://www.w3.org/2000/svg" viewBox="0 0 198.25 213.32"><defs><style>.cls-1{fill:#eb9760;}.cls-2{fill:#fcc197;}</style></defs><path class="cls-1" d="M184,96.22a128.59,128.59,0,0,0-17.6,27.8c-7.1,14.9-11.7,30.7-20.4,44.7-6.7,10.9-14.6,20.1-25.4,26.5-7.7,4.6-15.8,6.7-26.3,7.6-33.5,3.1-46.5-11.2-46.5-11.2a58.05,58.05,0,0,1-9.7-15.3c-3.6-8.7-8.6-49-10.9-58.5s-15.3-50-15.3-50-1.5-6.6,7.3-9.7c7.9-2.8,11,3.9,11,3.9l15,35.9s.9,4.1,4.1,3.2,2.3-4.6,2.3-4.6l-11.7-60.8s-1.3-7.1,8.1-8.8,10.3,4.2,10.3,4.2l16.6,61.1s1.4,3.6,3.7,3.2,2-3.7,2-3.7l-7.4-72.6s-.9-8.1,9.4-8.9,10.6,6.5,10.6,6.5l11.7,72.2s.3,3.1,2.5,3.1c3.7,0,3-4.1,3-4.1l-.6-61s-1.8-8.3,10.9-8.6c10.4-.2,10.3,7.5,10.3,7.5l5.7,84s0,4,2.5,4.2a4.3,4.3,0,0,0,5-4.2s9.6-21.8,23.3-25.3C186.89,79.52,184,96.22,184,96.22Z"/><path class="cls-2" d="M181.79,95.82s1-1.5-2.9-5.1-6.6-2.8-6.6-2.8-11.9,10.1-4.9,15.3C175.19,109.12,181.79,95.82,181.79,95.82Z"/><path class="cls-2" d="M128,23.32s-2.7-1.7-7.8-1.4c-6.6.4-7.1,2.3-7.1,2.3s-1.4,11.9,8,11.5C131,35.32,128,23.32,128,23.32Z"/><path class="cls-2" d="M89.49,15.62s-1.8-2.5-6.7-1.9c-6.3.7-6.9,3.6-6.9,3.6s-.1,11.8,8.1,11.3C93.49,27.92,89.49,15.62,89.49,15.62Z"/><path class="cls-2" d="M55.89,31.72a10.05,10.05,0,0,0-7.2-.9c-5.8,1.2-6,3.5-6,3.5s-.2,10.5,8.5,9.9C60.09,43.62,55.89,31.72,55.89,31.72Z"/><path class="cls-2" d="M25.09,62.52a11.93,11.93,0,0,0-6.7.6c-4.7,1.9-3.9,3.6-3.9,3.6s1.4,8.5,8.5,6.6C30.29,71.42,25.09,62.52,25.09,62.52Z"/></svg>